<svg width="3742" height="444" viewBox="0 0 3742 444" fill="none" xmlns="http://www.w3.org/2000/svg">
<path d="M274.086 434.693L0.137569 322.23V236.874L274.086 123.834V210.921L72.2292 294.547V264.557L274.086 347.606V434.693ZM581.908 443.921C551.149 443.921 522.504 438.346 495.975 427.196C469.829 416.045 446.952 400.474 427.343 380.48C407.734 360.487 392.355 337.033 381.205 310.119C370.439 283.205 365.056 253.791 365.056 221.879C365.056 189.966 370.439 160.553 381.205 133.639C391.97 106.34 407.158 82.8861 426.767 63.2772C446.376 43.2837 469.253 27.9042 495.398 17.1385C521.928 5.98834 550.764 0.413263 581.908 0.413263C613.051 0.413263 640.927 5.60386 665.534 15.9851C690.526 26.3662 711.673 40.2078 728.975 57.5098C746.277 74.8118 758.58 94.0362 765.886 115.183L686.873 153.247C679.568 132.485 666.687 115.375 648.232 101.918C630.161 88.0766 608.053 81.1558 581.908 81.1558C556.532 81.1558 534.231 87.1154 515.007 99.0346C495.782 110.954 480.787 127.487 470.022 148.634C459.64 169.396 454.45 193.811 454.45 221.879C454.45 249.946 459.64 274.554 470.022 295.7C480.787 316.847 495.782 333.38 515.007 345.299C534.231 357.219 556.532 363.178 581.908 363.178C608.053 363.178 630.161 356.45 648.232 342.993C666.687 329.151 679.568 311.849 686.873 291.087L765.886 329.151C758.58 350.298 746.277 369.522 728.975 386.824C711.673 404.126 690.526 417.968 665.534 428.349C640.927 438.73 613.051 443.921 581.908 443.921ZM967.566 443.921C936.423 443.921 907.971 436.808 882.21 422.582C856.834 408.356 836.456 388.939 821.076 364.332C806.081 339.34 798.584 311.08 798.584 279.552C798.584 247.639 806.081 219.379 821.076 194.772C836.456 170.165 856.834 150.748 882.21 136.522C907.971 122.296 936.423 115.183 967.566 115.183C998.71 115.183 1026.97 122.296 1052.35 136.522C1077.72 150.748 1097.91 170.165 1112.9 194.772C1128.28 219.379 1135.97 247.639 1135.97 279.552C1135.97 311.08 1128.28 339.34 1112.9 364.332C1097.91 388.939 1077.72 408.356 1052.35 422.582C1026.97 436.808 998.71 443.921 967.566 443.921ZM967.566 366.062C983.33 366.062 996.98 362.409 1008.51 355.104C1020.43 347.799 1029.66 337.61 1036.2 324.537C1043.12 311.464 1046.58 296.469 1046.58 279.552C1046.58 262.634 1043.12 247.832 1036.2 235.144C1029.66 222.071 1020.43 211.882 1008.51 204.577C996.98 196.887 983.33 193.042 967.566 193.042C951.802 193.042 937.961 196.887 926.042 204.577C914.122 211.882 904.702 222.071 897.782 235.144C891.245 247.832 887.977 262.634 887.977 279.552C887.977 296.469 891.245 311.464 897.782 324.537C904.702 337.61 914.122 347.799 926.042 355.104C937.961 362.409 951.802 366.062 967.566 366.062ZM1335.16 443.921C1304.4 443.921 1276.91 436.616 1252.68 422.005C1228.46 407.394 1209.24 387.593 1195.01 362.601C1181.17 337.61 1174.25 309.927 1174.25 279.552C1174.25 248.793 1181.36 221.11 1195.59 196.502C1209.81 171.511 1229.04 151.709 1253.26 137.099C1277.48 122.488 1304.59 115.183 1334.58 115.183C1357.65 115.183 1378.03 119.605 1395.71 128.448C1413.78 136.907 1428.01 149.018 1438.39 164.782L1425.13 182.084V0.413263H1511.64V437H1430.89V379.327L1438.97 397.205C1428.2 412.585 1413.59 424.312 1395.14 432.386C1376.68 440.076 1356.69 443.921 1335.16 443.921ZM1345.54 366.062C1361.3 366.062 1375.14 362.409 1387.06 355.104C1398.98 347.799 1408.21 337.61 1414.75 324.537C1421.67 311.464 1425.13 296.469 1425.13 279.552C1425.13 262.634 1421.67 247.639 1414.75 234.567C1408.21 221.494 1398.98 211.305 1387.06 204C1375.14 196.695 1361.3 193.042 1345.54 193.042C1329.77 193.042 1315.55 196.887 1302.86 204.577C1290.56 211.882 1280.94 222.071 1274.02 235.144C1267.1 247.832 1263.64 262.634 1263.64 279.552C1263.64 296.469 1267.1 311.464 1274.02 324.537C1280.94 337.61 1290.56 347.799 1302.86 355.104C1315.55 362.409 1329.77 366.062 1345.54 366.062ZM1726.67 443.921C1693.22 443.921 1664.19 436.616 1639.59 422.005C1614.98 407.01 1595.95 387.016 1582.49 362.025C1569.03 337.033 1562.3 309.35 1562.3 278.975C1562.3 247.447 1569.22 219.379 1583.07 194.772C1597.29 170.165 1616.32 150.748 1640.16 136.522C1664 122.296 1690.92 115.183 1720.91 115.183C1745.9 115.183 1768.01 119.22 1787.23 127.294C1806.45 134.984 1822.6 145.942 1835.68 160.168C1849.13 174.394 1859.32 190.927 1866.24 209.767C1873.16 228.223 1876.62 248.408 1876.62 270.324C1876.62 276.476 1876.24 282.628 1875.47 288.78C1875.09 294.547 1874.12 299.545 1872.59 303.775H1636.7V240.334H1823.56L1782.62 270.324C1786.46 253.791 1786.27 239.181 1782.04 226.493C1777.81 213.42 1770.31 203.231 1759.55 195.926C1749.17 188.236 1736.28 184.391 1720.91 184.391C1705.91 184.391 1693.03 188.044 1682.26 195.349C1671.5 202.654 1663.42 213.42 1658.04 227.646C1652.66 241.872 1650.54 259.174 1651.7 279.552C1650.16 297.238 1652.27 312.81 1658.04 326.267C1663.81 339.724 1672.65 350.298 1684.57 357.988C1696.49 365.293 1710.91 368.946 1727.83 368.946C1743.21 368.946 1756.28 365.87 1767.04 359.718C1778.19 353.566 1786.85 345.107 1793 334.342L1862.2 367.215C1856.05 382.595 1846.25 396.052 1832.79 407.587C1819.72 419.121 1804.15 428.157 1786.08 434.693C1768.01 440.845 1748.2 443.921 1726.67 443.921ZM1933.91 437V7.33404H2115.58C2145.19 7.33404 2170.56 12.3324 2191.71 22.3291C2212.86 32.3258 2229 46.7441 2240.15 65.5841C2251.3 84.0395 2256.88 106.532 2256.88 133.062C2256.88 151.902 2251.69 169.973 2241.31 187.275C2230.93 204.192 2213.82 218.418 2189.98 229.953V186.121C2212.66 194.964 2230.16 205.538 2242.46 217.842C2254.76 230.145 2263.22 243.602 2267.84 258.213C2272.45 272.439 2274.76 287.434 2274.76 303.198C2274.76 345.492 2260.72 378.365 2232.66 401.819C2204.59 425.273 2165.56 437 2115.58 437H1933.91ZM2023.3 359.141H2125.96C2144.03 359.141 2158.45 353.95 2169.22 343.569C2179.98 333.188 2185.36 319.731 2185.36 303.198C2185.36 286.28 2179.98 272.631 2169.22 262.25C2158.45 251.869 2144.03 246.678 2125.96 246.678H2023.3V359.141ZM2023.3 168.819H2121.92C2135.77 168.819 2146.72 164.974 2154.8 157.285C2163.26 149.21 2167.49 138.637 2167.49 125.564C2167.49 112.492 2163.26 102.11 2154.8 94.4207C2146.72 86.3465 2135.77 82.3093 2121.92 82.3093H2023.3V168.819ZM2438.8 443.921C2413.42 443.921 2391.7 438.538 2373.63 427.772C2355.94 416.622 2342.48 401.243 2333.26 381.634C2324.03 362.025 2319.41 339.148 2319.41 313.002V122.104H2405.92V306.082C2405.92 318.001 2408.23 328.574 2412.85 337.802C2417.84 346.645 2424.76 353.566 2433.61 358.564C2442.45 363.563 2452.45 366.062 2463.6 366.062C2475.13 366.062 2485.13 363.563 2493.59 358.564C2502.43 353.566 2509.16 346.645 2513.77 337.802C2518.77 328.574 2521.27 318.001 2521.27 306.082V122.104H2607.78V437H2527.04V374.713L2531.65 388.554C2524.35 407.394 2512.43 421.428 2495.89 430.656C2479.75 439.499 2460.71 443.921 2438.8 443.921ZM2671.01 437V122.104H2751.75V197.656L2745.98 186.698C2752.91 160.168 2764.25 142.29 2780.01 133.062C2796.16 123.45 2815.19 118.643 2837.11 118.643H2855.56V193.619H2828.46C2807.31 193.619 2790.2 200.155 2777.13 213.228C2764.06 225.916 2757.52 243.987 2757.52 267.441V437H2671.01ZM3016.9 443.921C2982.3 443.921 2952.11 435.847 2926.35 419.698C2900.98 403.165 2883.68 381.057 2874.45 353.374L2937.89 323.384C2945.96 340.301 2956.92 353.566 2970.76 363.178C2984.6 372.79 2999.98 377.597 3016.9 377.597C3029.2 377.597 3038.62 375.097 3045.16 370.099C3051.7 365.101 3054.97 358.18 3054.97 349.337C3054.97 344.723 3053.81 340.878 3051.5 337.802C3049.2 334.342 3045.74 331.266 3041.12 328.574C3036.51 325.883 3030.74 323.576 3023.82 321.653L2970.19 306.658C2944.42 299.353 2924.62 287.626 2910.78 271.478C2896.94 254.945 2890.02 235.528 2890.02 213.228C2890.02 193.619 2895.02 176.509 2905.01 161.898C2915.01 147.288 2929.05 135.945 2947.12 127.871C2965.19 119.412 2985.95 115.183 3009.4 115.183C3040.16 115.183 3067.08 122.488 3090.15 137.099C3113.6 151.325 3130.13 171.511 3139.74 197.656L3075.73 227.646C3071.11 214.573 3062.65 204.192 3050.35 196.502C3038.43 188.428 3024.78 184.391 3009.4 184.391C2998.25 184.391 2989.41 186.698 2982.87 191.312C2976.72 195.926 2973.65 202.27 2973.65 210.344C2973.65 214.573 2974.8 218.418 2977.11 221.879C2979.41 225.339 2983.07 228.415 2988.06 231.106C2993.45 233.798 2999.98 236.297 3007.67 238.604L3057.85 253.599C3083.99 261.289 3103.99 273.016 3117.83 288.78C3131.67 304.159 3138.59 323.191 3138.59 345.876C3138.59 365.485 3133.4 382.595 3123.02 397.205C3113.02 411.816 3098.99 423.351 3080.92 431.809C3062.85 439.884 3041.51 443.921 3016.9 443.921ZM3341.98 440.46C3303.91 440.46 3274.31 430.271 3253.16 409.894C3232.4 389.131 3222.01 360.295 3222.01 323.384V197.079H3168.96V122.104H3171.84C3187.99 122.104 3200.29 118.067 3208.75 109.992C3217.59 101.918 3222.01 89.8069 3222.01 73.6583V50.589H3308.52V122.104H3382.35V197.079H3308.52V317.616C3308.52 328.382 3310.45 337.417 3314.29 344.723C3318.14 351.644 3324.1 356.834 3332.17 360.295C3340.25 363.755 3350.24 365.485 3362.16 365.485C3364.85 365.485 3367.93 365.293 3371.39 364.908C3374.85 364.524 3378.5 364.139 3382.35 363.755V437C3376.58 437.769 3370.04 438.538 3362.74 439.307C3355.43 440.076 3348.51 440.46 3341.98 440.46ZM3467.07 434.693V347.606L3668.92 264.557V294.547L3467.07 210.921V123.834L3741.02 236.874V322.23L3467.07 434.693Z" fill="white"/>
</svg>
